<svg xmlns:inkscape="http://www.inkscape.org/namespaces/inkscape" xmlns:sodipodi="http://sodipodi.sourceforge.net/DTD/sodipodi-0.dtd" xmlns="http://www.w3.org/2000/svg" xmlns:svg="http://www.w3.org/2000/svg" version="1.1" id="Layer_1" x="0px" y="0px" style="enable-background:new 0 0 1000 1000;" xml:space="preserve" sodipodi:docname="happyWeavey.svg" inkscape:version="1.2 (dc2aedaf03, 2022-05-15)" viewBox="250.06 185.13 499.89 560.23"><defs id="defs207"/><sodipodi:namedview id="namedview205" pagecolor="#505050" bordercolor="#eeeeee" borderopacity="1" inkscape:showpageshadow="0" inkscape:pageopacity="0" inkscape:pagecheckerboard="0" inkscape:deskcolor="#505050" showgrid="false" inkscape:zoom="1.652241" inkscape:cx="250.26615" inkscape:cy="310.48739" inkscape:window-width="2560" inkscape:window-height="1417" inkscape:window-x="-8" inkscape:window-y="-8" inkscape:window-maximized="1" inkscape:current-layer="g202"/>
<style type="text/css" id="style2">
	.st0{fill:#7446B9;}
	.st1{fill:#5E2FA7;}
	.st2{fill:#351164;}
	.st3{fill:#9C69E3;}
	.st4{fill:#EC3C67;}
	.st5{opacity:0.5;fill:#5E2FA7;}
	.st6{fill:#FFDB29;}
	.st7{fill:#FFFFFF;}
	.st8{opacity:0.3;}
	.st9{opacity:0.3;fill:#FFFFFF;}
</style>
<g id="g202">
	<g id="g12">
		<path class="st0" d="M559.42,612.84c8.98,10.39,15.08,22.79,20.49,35.31c6.14,14.19,10.53,34.85,26.07,41.88    c19.55,8.84,33.1-9.86,38.79-26.26c15.69-45.26-11.65-92.78-40.34-126.11" id="path4"/>
		<path class="st1" d="M641.7,671.18c-9.9,3.19-19.71,3.23-24.64-5.72c-12.15-22.01,22.5-60.57,22.5-60.57l2.59-6.24    c-8.34-22.62-22.83-43.72-37.71-61l-45.02,75.18c8.98,10.39,15.08,22.79,20.49,35.31c6.14,14.19,10.53,34.85,26.07,41.88    C622.62,697.55,634.9,685.15,641.7,671.18z" id="path6"/>
		<g id="g10">
			<path class="st2" d="M615.84,700.63c-4.39,0-8.87-1-13.29-3c-15.54-7.03-21.79-23.79-26.81-37.25c-1.19-3.2-2.32-6.22-3.48-8.92     c-4.95-11.44-10.69-23.38-19.15-33.17c-3.01-3.49-2.63-8.76,0.86-11.77c3.49-3.01,8.76-2.63,11.77,0.86     c9.93,11.49,16.36,24.79,21.84,37.45c1.34,3.09,2.53,6.31,3.8,9.71c4.34,11.66,8.84,23.71,18.05,27.88     c4.12,1.87,7.68,2.03,11.2,0.52c6.29-2.71,12.52-11.1,16.27-21.9c15.67-45.22-17.57-93.3-38.78-117.94     c-3.01-3.49-2.61-8.76,0.88-11.77c3.49-3.01,8.76-2.61,11.77,0.88c17.57,20.41,30.44,40.93,38.26,61     c10.2,26.17,11.42,50.83,3.64,73.29c-2.55,7.36-10.14,25.18-25.44,31.77C623.56,699.85,619.73,700.63,615.84,700.63z" id="path8"/>
		</g>
	</g>
	<g id="g22">
		<path class="st0" d="M516.38,642.01c2.76,12.85,2.18,26.06,0.96,39.05c-1.38,14.73-7.19,34.08,2.62,47.13    c12.34,16.41,32.31,6.95,44.62-4.2c33.97-30.77,32.89-83.21,24.14-124.37" id="path14"/>
		<path class="st1" d="M516.38,642.01c2.76,12.85,2.18,26.06,0.96,39.05c-0.21,2.29-0.54,4.7-0.89,7.17c2-0.73,3.96-1.81,5.83-2.71    c7.34-3.52,15.6-6.28,23.34-2.12c9.32,5.01,12.11,17.74,9.04,27.86c-3.05,10.07-10.46,18.13-17.74,25.74    c9.76-0.03,20.14-6.2,27.66-13.02c32.24-29.2,32.9-77.92,25.41-117.99c-2-1.27-4.06-2.44-6.18-3.5L516.38,642.01z" id="path16"/>
		<g id="g20">
			<path class="st2" d="M536.88,745.36c-0.97,0-1.94-0.04-2.92-0.14c-8.19-0.78-15.33-4.94-20.66-12.02     c-9.9-13.17-7.43-30.18-5.44-43.86c0.47-3.23,0.91-6.28,1.17-9.07c1.11-11.85,1.77-24.47-0.81-36.52     c-0.97-4.51,1.9-8.94,6.41-9.91c4.51-0.97,8.94,1.9,9.91,6.41c3.06,14.25,2.34,28.41,1.11,41.58c-0.3,3.22-0.77,6.47-1.27,9.92     c-1.7,11.71-3.46,23.81,2.26,31.42c2.54,3.37,5.37,5.1,8.9,5.44c6.43,0.6,15.41-3.53,23.45-10.81     c33.81-30.61,28.03-86.1,21.58-116.45c-0.96-4.51,1.92-8.94,6.43-9.9c4.51-0.96,8.94,1.92,9.9,6.43     c5.37,25.24,6.73,48.42,4.06,68.9c-3.49,26.74-13.84,48.06-30.76,63.39C564.97,734.9,551.73,745.36,536.88,745.36z" id="path18"/>
		</g>
	</g>
	<g id="g32">
		<path class="st0" d="M449.27,608.16c2.76,12.85,2.18,26.06,0.96,39.05c-1.38,14.73-7.19,34.08,2.62,47.13    c12.34,16.41,32.31,6.95,44.62-4.2c33.97-30.77,32.89-83.21,24.14-124.37" id="path24"/>
		<path class="st1" d="M449.27,608.16c2.76,12.85,2.18,26.06,0.96,39.05c-0.21,2.29-0.54,4.7-0.89,7.17c2-0.73,3.96-1.81,5.83-2.71    c7.34-3.52,15.6-6.28,23.34-2.12c9.32,5.01,12.11,17.74,9.04,27.86c-3.05,10.07-10.46,18.13-17.74,25.74    c9.76-0.03,20.14-6.2,27.66-13.02c32.24-29.2,32.9-77.92,25.41-117.99c-2-1.27-4.06-2.44-6.18-3.5L449.27,608.16z" id="path26"/>
		<g id="g30">
			<path class="st2" d="M469.77,711.51c-0.97,0-1.94-0.04-2.92-0.14c-8.19-0.78-15.33-4.94-20.66-12.02     c-9.9-13.17-7.43-30.18-5.44-43.86c0.47-3.23,0.91-6.28,1.17-9.07c1.11-11.85,1.77-24.47-0.81-36.52     c-0.97-4.51,1.9-8.94,6.41-9.91c4.51-0.97,8.94,1.9,9.91,6.41c3.06,14.25,2.34,28.41,1.11,41.58c-0.3,3.22-0.77,6.47-1.28,9.92     c-1.7,11.71-3.46,23.81,2.26,31.42c2.54,3.37,5.37,5.1,8.9,5.44c6.42,0.59,15.41-3.53,23.44-10.81     c33.81-30.61,28.03-86.1,21.58-116.45c-0.96-4.51,1.92-8.94,6.43-9.9c4.51-0.96,8.94,1.92,9.9,6.43     c5.37,25.24,6.73,48.42,4.06,68.9c-3.49,26.74-13.84,48.07-30.76,63.39C497.86,701.05,484.62,711.51,469.77,711.51z" id="path28"/>
		</g>
	</g>
	<g id="g42">
		<path class="st0" d="M351.38,568.23c2.76,12.85,2.18,26.06,0.96,39.05c-1.38,14.73-7.19,34.08,2.62,47.13    c12.34,16.41,32.31,6.95,44.62-4.2c33.97-30.77,32.89-83.21,24.14-124.37" id="path34"/>
		<path class="st1" d="M351.38,568.23c2.76,12.85,2.18,26.06,0.96,39.05c-0.21,2.29-0.54,4.7-0.89,7.17c2-0.73,3.96-1.81,5.83-2.71    c7.34-3.52,15.6-6.28,23.34-2.12c9.32,5.01,12.11,17.74,9.04,27.86c-3.05,10.07-10.46,18.13-17.74,25.74    c9.76-0.03,20.14-6.2,27.66-13.02c32.24-29.2,32.9-77.92,25.41-117.99c-2-1.27-4.06-2.44-6.18-3.5L351.38,568.23z" id="path36"/>
		<g id="g40">
			<path class="st2" d="M371.88,671.59c-0.97,0-1.94-0.04-2.92-0.14c-8.19-0.78-15.33-4.94-20.66-12.02     c-9.9-13.16-7.43-30.18-5.44-43.86c0.47-3.23,0.91-6.28,1.17-9.07c1.11-11.85,1.77-24.47-0.81-36.52     c-0.97-4.51,1.9-8.94,6.41-9.91c4.51-0.97,8.94,1.9,9.91,6.41c3.06,14.25,2.34,28.4,1.11,41.58c-0.3,3.22-0.77,6.47-1.28,9.92     c-1.7,11.71-3.46,23.81,2.26,31.42c2.54,3.37,5.37,5.1,8.9,5.44c6.42,0.61,15.41-3.53,23.44-10.81     c33.81-30.62,28.03-86.1,21.58-116.45c-0.96-4.51,1.92-8.94,6.43-9.9c4.51-0.96,8.94,1.92,9.9,6.43     c5.37,25.24,6.73,48.42,4.06,68.9c-3.49,26.74-13.84,48.06-30.76,63.39C399.96,661.12,386.73,671.59,371.88,671.59z" id="path38"/>
		</g>
	</g>
	<g id="g52">
		<path class="st0" d="M360.77,531.27c-13.62,1.72-26.46,6.85-38.85,12.54c-14.06,6.45-31.14,18.86-47.4,13.69    c-20.45-6.51-18.02-29.47-11.27-45.46c18.61-44.14,70.72-61.18,114.34-66.77" id="path44"/>
		<path class="st1" d="M275.19,492.14c4.52-3.35,10.92-3.94,16.14-1.7c5.74,2.46,9.92,7.95,11.43,14.01    c1.51,6.06,0.52,12.59-2.09,18.26c-3.41,7.4-9.82,13.62-17.69,15.72c-7.87,2.1-17.07-0.47-21.92-7.02    c-0.77-1.04-1.5-2.21-2.26-3.34c-1.63,12.52,1.55,24.93,15.72,29.44c16.26,5.17,33.34-7.24,47.4-13.69    c11.75-5.39,23.91-10.25,36.75-12.21c1.12-16.74-1.82-33.75-8.59-49.11c-2.5-5.66-5.6-11.22-10.26-15.28    c-5.39-4.69-12.51-6.94-19.69-7.2C302.66,467.4,286.77,477.77,275.19,492.14z" id="path46"/>
		<g id="g50">
			<path class="st2" d="M282.59,567.07c-3.5,0-7.04-0.49-10.6-1.62c-8.73-2.78-15.21-8.32-18.77-16.02     c-6.97-15.13-0.69-33.46,2.34-40.63c9.24-21.91,26.64-39.42,51.73-52.05c19.23-9.68,42.53-16.33,69.24-19.75     c4.56-0.59,8.75,2.65,9.34,7.22s-2.65,8.75-7.22,9.34c-32.25,4.13-89.12,17.64-107.71,61.73c-4.44,10.54-5.42,20.94-2.56,27.16     c1.6,3.48,4.36,5.73,8.67,7.11c9.63,3.07,21.04-2.89,32.06-8.65c3.22-1.68,6.26-3.27,9.32-4.67     c12.54-5.75,26.22-11.33,41.29-13.23c4.57-0.58,8.75,2.66,9.32,7.24c0.58,4.57-2.66,8.75-7.24,9.32     c-12.83,1.62-25.09,6.65-36.42,11.85c-2.67,1.22-5.53,2.72-8.55,4.3C306.89,560.88,295.05,567.07,282.59,567.07z" id="path48"/>
		</g>
	</g>
	<g id="g62">
		<path class="st0" d="M368.41,589.35c-10.64,7.7-19.05,17.92-26.84,28.39c-8.83,11.87-17.45,30.15-33.48,33.28    c-20.15,3.94-28.67-16.45-30.36-32.97c-4.68-45.6,31.21-83.85,65.25-108.6" id="path54"/>
		<path class="st1" d="M321.54,530.68c-6.26,4.94-9.46,13.5-10.04,21.23c-0.77,10.14,2.08,20.15,4.52,30.02    c2.44,9.87,4.5,20.23,2.17,30.13c-2.33,9.9-10.23,19.18-20.37,19.93c-9.08,0.67-17.7-6.74-19.37-15.52    c0.2,3.56,0.47,7.12,0.88,10.65c3.52,13.96,12.22,27.13,28.76,23.89c16.02-3.13,24.64-21.41,33.48-33.28    c7.79-10.47,16.19-20.68,26.84-28.39l-17.24-54.17c-4.3-1.65-8.67-3.14-13.01-4.54C332.07,528.66,327.07,526.32,321.54,530.68z" id="path56"/>
		<g id="g60">
			<path class="st2" d="M303.24,659.85c-6.23,0-12-1.87-16.93-5.53c-12.93-9.58-16.1-27.96-16.87-35.42     c-2.33-22.72,4.24-45.5,19.54-67.7c11.71-17,28.23-33.32,49.11-48.5c3.73-2.71,8.95-1.88,11.66,1.84     c2.71,3.73,1.88,8.95-1.84,11.66c-25.1,18.24-66.5,55.62-61.85,101c1.11,10.79,5.01,19.87,10.2,23.71     c2.85,2.12,6.11,2.73,10.26,1.91c9.34-1.83,16.13-12,22.7-21.84c1.93-2.9,3.76-5.63,5.69-8.22c7.9-10.61,16.83-21.62,28.64-30.16     c3.73-2.7,8.95-1.87,11.65,1.87c2.7,3.73,1.87,8.95-1.87,11.65c-9.98,7.23-17.93,17.06-25.03,26.61     c-1.67,2.25-3.38,4.81-5.19,7.52c-7.67,11.5-17.21,25.8-33.38,28.96C307.5,659.63,305.34,659.85,303.24,659.85z" id="path58"/>
		</g>
	</g>
	<g id="XMLID_00000127732060310035079170000008565628628121970102_">
		<g id="g66">
			<path class="st0" d="M633.18,538.92c-5.05,42.68-24.68,83.84-59.28,104.45c-41.46,24.71-89.85,20.56-130.36,9.72     c-40.59-10.84-81.19-33.24-103.88-75.34c-13.85-25.69-17.67-56.54-7.6-91.54c10.83-37.62,33.45-70.08,60.35-93.67     c36.53-32.08,84.28-51.81,125.98-43.93c22.61,4.27,43.32,15.96,60.64,32.41c31.69,30.03,53.39,76.71,55.36,128.48     C634.74,519.23,634.36,529.11,633.18,538.92z" id="path64"/>
		</g>
		<path class="st3" d="M443.54,653.09c7.47,2,15.22,3.77,23.13,5.17c-3.75-1.79-7.92-3.63-12.65-5.49    C314.8,598.01,347.19,496.99,347.19,496.99l-18.48,3.37c-5.47,29.21-1.01,55.22,10.94,77.39    C362.35,619.85,402.95,642.25,443.54,653.09z" id="path68"/>
		<path class="st1" d="M503.99,548.13c85.19,17.5,75.16,103.28-60.45,104.96c40.51,10.84,88.9,14.99,130.36-9.72    c34.6-20.61,54.23-61.77,59.28-104.45c1.17-9.81,1.56-19.69,1.2-29.42c-1.06-27.88-7.88-54.25-18.86-77.37l-245.87,4.23    C369.64,436.36,418.8,530.64,503.99,548.13z" id="path70"/>
		<g id="g76">
			<g id="g74">
				<path class="st2" d="M502.92,669.94c-19.09,0-39.63-2.93-61.54-8.79c-50.63-13.52-88.35-40.99-109.07-79.44      c-15.76-29.22-18.54-62.13-8.27-97.81c10.55-36.66,32.87-71.33,62.86-97.64c41.65-36.58,91.39-53.72,133.03-45.85      c23.23,4.39,45.65,16.34,64.83,34.56c34.84,33.02,55.97,81.94,57.95,134.22c0.38,10.24-0.04,20.58-1.25,30.73      c-5.9,49.87-28.97,90.19-63.3,110.63C556.48,663.47,531.31,669.94,502.92,669.94z M499.78,355.26      c-32.7,0-70.27,15.79-101.87,43.54c-27.62,24.23-48.16,56.09-57.83,89.71c-9.02,31.34-6.69,60.03,6.92,85.28      c23.35,43.34,66.56,62.66,98.69,71.24c49.98,13.37,91.67,10.4,123.94-8.83c29.4-17.5,50.06-54.24,55.27-98.26l0-0.01      c1.11-9.29,1.49-18.75,1.14-28.12c-1.79-47.24-21.52-93.13-52.76-122.74c-16.86-16.01-36.38-26.47-56.45-30.26      C511.35,355.77,505.64,355.26,499.78,355.26z" id="path72"/>
			</g>
		</g>
	</g>
	<g id="g93">
		<g id="g87">
			<path class="st0" d="M629.89,482.48c15.07,1.33,30.09-1.22,44.77-4.45c16.64-3.67,37.93-13.06,54.24-3.7     c20.51,11.77,12.54,35.94,1.55,51.59c-30.33,43.2-90.42,49.42-138.71,45.27" id="path79"/>
			<path class="st1" d="M730.43,525.91c1.07-1.53,2.12-3.14,3.11-4.82c-18.05,11.62-38.3,19.85-59.39,23.91     c-8.18,1.58-17.14,2.43-24.41-1.64c-7.16-4.01-11.34-12.76-9.93-20.85c0.6-3.47,2.22-6.71,4.5-9.39c2.38-2.79,6.2-3.65,8.5-6.05     c5.58-5.84-10.62-6.34-14.76-6.54c-5.23-0.25-10.48-0.49-15.72-0.5l-30.6,71.14C640.01,575.33,700.1,569.12,730.43,525.91z" id="path81"/>
			<g id="g85">
				<path class="st2" d="M616.58,580.63c-8.25,0-16.78-0.38-25.57-1.13c-4.59-0.39-7.99-4.44-7.6-9.03c0.4-4.59,4.46-7.98,9.03-7.6      c35.87,3.08,100.62,1.76,131.16-41.75c5.78-8.23,11.24-20.26,9.22-29.33c-0.96-4.31-3.6-7.65-8.09-10.23      c-9.97-5.72-23.81-1.92-37.2,1.76c-3.85,1.06-7.49,2.06-11.09,2.85c-14.78,3.26-30.74,6.07-47.29,4.62      c-4.59-0.4-7.99-4.45-7.58-9.04c0.41-4.59,4.46-7.97,9.04-7.58c14.31,1.26,28.76-1.32,42.24-4.29c3.18-0.7,6.62-1.65,10.26-2.65      c15.12-4.15,33.93-9.33,49.93-0.14c8.54,4.9,14.09,12.19,16.07,21.08c3.91,17.59-6.98,35.62-11.85,42.55      c-14.94,21.27-37.6,35.97-67.36,43.67C653.85,578.54,635.99,580.63,616.58,580.63z" id="path83"/>
			</g>
		</g>
		
			<ellipse transform="matrix(0.9741 -0.2263 0.2263 0.9741 -92.8363 172.3219)" class="st3" cx="705.16" cy="491.07" rx="15.33" ry="10.03" id="ellipse89"/>
		
			<ellipse transform="matrix(0.9741 -0.2263 0.2263 0.9741 -98.8393 169.1572)" class="st3" cx="688.36" cy="515.67" rx="7.67" ry="5.02" id="ellipse91"/>
	</g>
	<g id="g103">
		<path class="st0" d="M377.5,407.93c-12.82-8.03-23.27-19.12-33.03-30.55c-11.06-12.96-22.38-33.29-41.03-35.66    c-23.46-2.97-31.67,21.11-32.34,40.22c-1.85,52.75,42.33,93.95,83.35,119.76" id="path95"/>
		<path class="st3" d="M342.43,371.09c-11.06-12.96-22.38-33.29-41.03-35.66c-23.46-2.97-31.67,21.11-32.34,40.22    c-1.02,29.03,11.92,54.55,30.58,75.94c-29.37-65.18-11.42-90.59,3.88-91.61c14.13-0.95,40.59,36.39,41.96,39.12l1.06-23.29    C345.16,374.25,343.79,372.67,342.43,371.09z" id="path97"/>
		<g id="g101">
			<path class="st2" d="M354.44,510.05c-1.52,0-3.06-0.42-4.44-1.28c-25.04-15.75-45.17-33.13-59.85-51.65     c-19.09-24.09-28.31-49.48-27.4-75.46c0.3-8.46,2.47-29.41,16.2-41.09c6.94-5.9,15.77-8.36,25.53-7.12     c18.3,2.32,30.19,17.79,39.75,30.22c2.3,2.99,4.47,5.82,6.59,8.29c8.96,10.5,18.94,21.27,31.11,28.89     c3.91,2.45,5.09,7.6,2.64,11.5c-2.45,3.91-7.6,5.09-11.5,2.64c-14.08-8.82-25.12-20.69-34.94-32.2c-2.39-2.8-4.69-5.79-7.13-8.96     c-8.46-11.01-17.21-22.39-28.61-23.84c-5.13-0.65-9.26,0.42-12.62,3.28c-7.08,6.02-9.98,18.91-10.34,28.96     c-1.87,53.13,48.98,93.23,79.46,112.4c3.9,2.45,5.07,7.61,2.62,11.51C359.93,508.67,357.22,510.05,354.44,510.05z" id="path99"/>
		</g>
	</g>
	<g id="g163">
		<g id="g119">
			<path class="st0" d="M710.11,397.84c1.93-36.32-7.93-74.82-24.9-105.33c-28.52-51.29-78.78-89.4-136.58-97.48     c-39.21-5.48-79.62,2.13-114.94,20.5c-34,17.69-63.49,45.1-81.83,79.5c-4.89,9.18-8.88,18.87-11.74,28.9     c-10.01,35.2-3.34,67.04,15.26,94.3c25.56,37.48,73.68,66.32,132.1,83.33c59.59,17.36,116.54,18.54,158.09-0.6     C688.92,480.99,707.82,440.95,710.11,397.84z" id="path105"/>
			<path class="st3" d="M343.32,346.56c2.85-10.03,6.84-19.72,11.74-28.9c18.34-34.4,47.83-61.81,81.83-79.5     c35.32-18.37,75.73-25.98,114.94-20.5c57.8,8.08,108.06,46.19,136.58,97.48c9.75,17.53,17.13,37.71,21.3,58.59     c-2.35-28.72-11.24-57.41-24.48-81.23c-28.52-51.29-78.78-89.4-136.58-97.48c-39.21-5.48-79.62,2.13-114.94,20.5     c-34,17.69-63.49,45.1-81.83,79.5c-4.89,9.18-8.89,18.87-11.74,28.9c-5.85,20.57-5.96,39.99-1.37,58.02     C338.42,370.58,339.84,358.78,343.32,346.56z" id="path107"/>
			<path class="st1" d="M710.62,398.65l0.01-0.02c0-0.08,0-0.16,0.02-0.23c0.1-2.39,0.18-4.77,0.19-7.16     c0.02-1.26,0.01-2.5-0.02-3.74c-0.01-1.24-0.05-2.52-0.1-3.77c-0.03-1.25-0.1-2.51-0.18-3.76c-0.06-1.23-0.16-2.47-0.24-3.71     c-0.02-0.08-0.02-0.19-0.02-0.26c-0.2-2.43-0.46-4.88-0.75-7.33c-0.16-1.31-0.34-2.6-0.53-3.89c-0.17-1.26-0.36-2.53-0.57-3.8     c-0.21-1.27-0.43-2.55-0.66-3.83c-0.19-1.11-0.4-2.21-0.64-3.33c-1.98-9.83-4.74-19.63-8.23-29.31     c-0.37-1.06-0.77-2.11-1.16-3.17c-2.15-5.7-4.58-11.34-7.25-16.89c-0.42-0.9-0.86-1.8-1.32-2.7     c-4.45-8.98-9.55-17.74-15.31-26.09c-0.88-1.29-1.76-2.58-2.68-3.82c-0.91-1.27-1.82-2.54-2.77-3.77     c-0.9-1.22-1.83-2.42-2.77-3.59c-0.02-0.08-0.08-0.13-0.14-0.19c-0.95-1.21-1.91-2.41-2.89-3.58c-1-1.22-2-2.41-3.03-3.59     c-0.99-1.16-2.01-2.31-3.02-3.46c-3.32-3.68-6.8-7.24-10.41-10.66c-0.92-0.89-1.88-1.76-2.83-2.63     c-0.05-0.07-0.13-0.12-0.19-0.18c-1.12-1.02-2.27-2.05-3.45-3.07c-2.35-2.05-4.75-4.04-7.21-5.97c-0.02-0.01-0.04-0.04-0.06-0.04     c-1.23-0.98-2.5-1.94-3.77-2.88c-1.01-0.76-2.02-1.49-3.06-2.23c-0.78-0.56-1.57-1.13-2.36-1.67c-0.42-0.28-0.82-0.57-1.25-0.85     c-0.95-0.64-1.92-1.28-2.89-1.9c-0.08-0.07-0.16-0.12-0.26-0.18c-0.89-0.59-1.8-1.17-2.73-1.72c-1.08-0.68-2.14-1.34-3.23-1.97     c-1.11-0.66-2.22-1.32-3.34-1.93c-0.6-0.35-1.2-0.68-1.8-1.01c-1.82-1.02-3.68-2-5.57-2.94c-1.68-0.85-3.39-1.68-5.13-2.47     c-0.95-0.46-1.91-0.89-2.87-1.3c-0.56-0.24-1.13-0.51-1.69-0.72c-0.73-0.31-1.45-0.63-2.19-0.92c-0.82-0.34-1.63-0.68-2.47-1     c-1.1-0.45-2.21-0.85-3.32-1.25c-1.04-0.41-2.1-0.79-3.17-1.16c-1.15-0.41-2.34-0.81-3.53-1.18c-1.56-0.51-3.1-0.98-4.68-1.44     c-1.57-0.46-3.13-0.89-4.72-1.3c-1.2-0.32-2.41-0.63-3.61-0.9c-0.16-0.04-0.31-0.07-0.47-0.1c0.72,0.25,1.44,0.51,2.13,0.78     c1.01,0.36,2.01,0.73,3.01,1.13c0.77,0.29,1.5,0.6,2.24,0.91c0.67,0.26,1.32,0.55,1.98,0.84c0.51,0.2,1.03,0.44,1.53,0.66     c0.87,0.37,1.74,0.76,2.6,1.18c1.58,0.72,3.13,1.47,4.65,2.24c1.72,0.85,3.4,1.74,5.05,2.67c0.55,0.3,1.09,0.6,1.63,0.92     c1.02,0.55,2.02,1.15,3.03,1.75c0.99,0.57,1.95,1.18,2.93,1.79c0.84,0.5,1.67,1.02,2.47,1.56c0.09,0.05,0.17,0.1,0.24,0.16     c0.89,0.56,1.76,1.15,2.62,1.72c0.39,0.25,0.74,0.52,1.13,0.77c0.71,0.49,1.43,1,2.14,1.51c0.94,0.67,1.86,1.34,2.78,2.02     c1.15,0.85,2.3,1.72,3.42,2.61c0.02,0.01,0.03,0.03,0.05,0.04c2.22,1.75,4.41,3.55,6.54,5.41c1.07,0.92,2.11,1.85,3.13,2.78     c0.05,0.06,0.12,0.11,0.17,0.17c0.86,0.79,1.73,1.58,2.57,2.38c3.27,3.11,6.43,6.34,9.44,9.67c0.92,1.04,1.85,2.08,2.74,3.14     c0.94,1.07,1.85,2.15,2.75,3.26c0.9,1.06,1.76,2.15,2.63,3.24c0.05,0.06,0.1,0.1,0.12,0.18c0.85,1.07,1.69,2.15,2.51,3.26     c0.86,1.12,1.68,2.27,2.51,3.42c0.83,1.13,1.63,2.3,2.43,3.47c5.22,7.58,9.85,15.52,13.89,23.67c0.42,0.82,0.82,1.64,1.2,2.45     c2.42,5.03,4.63,10.14,6.57,15.32c0.36,0.97,0.72,1.92,1.05,2.88c3.16,8.78,5.66,17.67,7.46,26.59c0.21,1.02,0.41,2.01,0.58,3.02     c0.21,1.16,0.41,2.32,0.6,3.47c0.19,1.16,0.37,2.31,0.52,3.45c0.17,1.17,0.34,2.34,0.48,3.53c0.26,2.23,0.5,4.45,0.68,6.65     c0,0.07,0,0.16,0.02,0.24c0.07,1.12,0.17,2.25,0.22,3.36c0.07,1.14,0.13,2.28,0.16,3.41c0.05,1.14,0.09,2.29,0.09,3.42     c0.03,1.13,0.03,2.25,0.01,3.4c-0.01,2.17-0.08,4.33-0.17,6.5c-0.02,0.06-0.02,0.14-0.02,0.21l-0.01,0.02     c-0.5,10.12-2.07,19.98-4.72,29.33c-8.79,30.91-28.17,51.71-54.31,63.64c-37.66,17.23-89.29,16.1-143.34,0.36     c-52.99-15.44-96.65-41.54-119.87-75.4c-15.47-22.56-21.84-48.59-15.87-77.21c-1.01,2.83-1.95,5.67-2.76,8.53     c-9.96,35.03-3.25,66.73,15.38,93.9c25.6,37.34,73.74,66.11,132.16,83.13c59.59,17.36,116.52,18.61,158.04-0.39     c28.82-13.16,50.19-36.09,59.88-70.17C708.34,420.68,710.06,409.81,710.62,398.65z" id="path109"/>
			<g id="g113">
				<path class="st2" d="M598.09,405.09c-0.75,0-1.52-0.1-2.29-0.32c-4.43-1.26-7-5.88-5.75-10.31c1.94-6.82-1.39-13.81-7.43-15.57      c-2.67-0.78-5.54-0.42-8.1,0.99c-2.99,1.65-5.27,4.61-6.27,8.11c-1.26,4.43-5.87,7.01-10.31,5.75      c-4.43-1.26-7.01-5.88-5.75-10.31c2.2-7.75,7.39-14.37,14.24-18.16c6.48-3.58,13.88-4.44,20.84-2.41      c14.82,4.32,23.26,20.54,18.82,36.15C605.07,402.69,601.73,405.09,598.09,405.09z" id="path111"/>
			</g>
			<g id="g117">
				<path class="st2" d="M486.17,372.48c-0.76,0-1.52-0.1-2.29-0.32c-4.43-1.26-7.01-5.88-5.75-10.31      c1.94-6.82-1.39-13.81-7.43-15.57c-2.66-0.78-5.54-0.43-8.1,0.99c-2.99,1.65-5.27,4.61-6.27,8.11c-1.26,4.43-5.88,7-10.31,5.75      c-4.43-1.26-7.01-5.88-5.75-10.31c2.2-7.75,7.4-14.37,14.24-18.15c6.48-3.58,13.88-4.44,20.84-2.41      c14.82,4.32,23.26,20.54,18.82,36.15C493.15,370.09,489.81,372.48,486.17,372.48z" id="path115"/>
			</g>
		</g>
		<g id="g157">
			<g id="g125">
				<g id="g123">
					<path class="st4" d="M601.46,439.8c-2.88-0.84-4.53-3.96-3.67-6.98l2.35-8.28c0.86-3.02,3.89-4.78,6.77-3.94       c2.88,0.84,4.53,3.96,3.67,6.98l-2.35,8.28C607.38,438.88,604.35,440.64,601.46,439.8z" id="path121"/>
				</g>
			</g>
			<g id="g131">
				<g id="g129">
					<path class="st4" d="M620.74,445.41c-2.88-0.84-4.53-3.96-3.67-6.98l2.35-8.28c0.86-3.02,3.89-4.78,6.77-3.94       s4.53,3.96,3.67,6.98l-2.35,8.28C626.66,444.49,623.62,446.25,620.74,445.41z" id="path127"/>
				</g>
			</g>
			<g id="g137">
				<g id="g135">
					<path class="st4" d="M638.43,450.57c-2.88-0.84-4.53-3.96-3.67-6.98l2.35-8.28c0.86-3.02,3.89-4.78,6.77-3.94       s4.53,3.96,3.67,6.98l-2.35,8.28C644.35,449.65,641.32,451.41,638.43,450.57z" id="path133"/>
				</g>
			</g>
			<g id="g143">
				<g id="g141">
					<path class="st4" d="M386.42,377.15c-2.88-0.84-4.53-3.96-3.67-6.98l2.35-8.28c0.86-3.02,3.89-4.78,6.77-3.94       s4.53,3.96,3.67,6.98l-2.35,8.28C392.33,376.22,389.3,377.99,386.42,377.15z" id="path139"/>
				</g>
			</g>
			<g id="g149">
				<g id="g147">
					<path class="st4" d="M405.68,382.76c-2.88-0.84-4.53-3.96-3.67-6.98l2.35-8.28c0.86-3.02,3.89-4.78,6.77-3.94       s4.53,3.96,3.67,6.98l-2.35,8.28C411.59,381.84,408.56,383.6,405.68,382.76z" id="path145"/>
				</g>
			</g>
			<g id="g155">
				<g id="g153">
					<path class="st4" d="M423.37,387.91c-2.88-0.84-4.53-3.97-3.67-6.98l2.35-8.28c0.86-3.02,3.89-4.78,6.77-3.94       s4.53,3.96,3.67,6.98l-2.35,8.28C429.28,386.99,426.25,388.75,423.37,387.91z" id="path151"/>
				</g>
			</g>
		</g>
		<g id="g161">
			<path class="st2" d="M573.78,523.66c-26.82,0-56.5-4.44-88.89-13.34c-43.08-11.83-101.72-36.56-136.43-87.18     c-20.91-30.48-26.62-65.37-16.52-100.9c10.51-36.96,35.56-71.04,70.55-95.97c48.04-34.23,106.86-48.31,157.36-37.65     c27.93,5.89,55.48,19.31,79.67,38.81c21.17,17.06,39.53,38.56,53.1,62.17c14.31,24.89,23.08,51.2,26.06,78.2     c1.16,10.49,1.34,21.09,0.54,31.49c-1.82,23.53-8.66,45.7-19.8,64.12c-12.35,20.43-29.31,35.68-50.41,45.34     C627.28,518.69,602.13,523.66,573.78,523.66z M526.21,201.9c-38.21,0-79.71,13.5-114.04,37.95     c-31.91,22.74-54.71,53.62-64.18,86.95c-8.82,31.03-4.03,60.26,14.23,86.89c31.86,46.46,86.7,69.43,127.09,80.53     c62.75,17.23,114.14,17.01,152.75-0.66c35.01-16.02,57.06-50.85,60.51-95.56l8.32,0.64l-8.32-0.64     c0.72-9.37,0.56-18.92-0.49-28.38c-5.34-48.34-32.65-96.64-73.05-129.21c-22.15-17.86-47.27-30.12-72.64-35.48     C546.72,202.9,536.58,201.9,526.21,201.9z" id="path159"/>
		</g>
	</g>
	<g id="XMLID_00000167387030387725598430000000567771991670818236_">
		<g id="g167">
			<path class="st4" d="M485.08,386.45l58.85,18.33c-6.47,21.89-15.13,51.06-44.55,41.95C469.98,437.58,478.61,408.34,485.08,386.45     z" id="path165"/>
		</g>
		<g id="g173">
			<g id="g171">
				<path class="st2" d="M509.77,456.79c-4.08,0-8.37-0.69-12.86-2.08c-16.28-5.07-25.43-16.42-26.46-32.81      c-0.8-12.67,3.32-26.6,6.63-37.8c0.63-2.14,2.1-3.94,4.07-5c1.97-1.05,4.28-1.27,6.41-0.61l58.85,18.33      c4.35,1.36,6.81,5.96,5.52,10.33c-4.92,16.64-11.04,37.36-27.05,45.93C520.27,455.55,515.21,456.79,509.77,456.79z       M490.78,396.97c-6.51,24.4-5.6,36.6,11.08,41.8c6.13,1.9,11.09,1.77,15.14-0.4c8.03-4.3,12.85-16.37,16.54-28.08L490.78,396.97      z" id="path169"/>
			</g>
		</g>
	</g>
	<g id="g184">
		<g id="g178">
			
				<ellipse transform="matrix(0.9933 -0.1158 0.1158 0.9933 -34.907 77.0132)" class="st3" cx="645.45" cy="338.98" rx="16.88" ry="23.1" id="ellipse176"/>
		</g>
		<g id="g182">
			
				<ellipse transform="matrix(0.7223 -0.6915 0.6915 0.7223 -71.4944 380.6547)" class="st3" cx="438.28" cy="279.36" rx="23.1" ry="16.88" id="ellipse180"/>
		</g>
	</g>
	<g id="g188">
		<path class="st1" d="M278.45,616.47c-0.09-1.54-0.17-3.08-0.24-4.61C278.06,613.42,278.16,614.96,278.45,616.47z" id="path186"/>
	</g>
	
		<ellipse transform="matrix(0.78 -0.6258 0.6258 0.78 -161.3337 269.8319)" class="st3" cx="303.05" cy="364.34" rx="10.03" ry="15.33" id="ellipse190"/>
	
		<ellipse transform="matrix(0.78 -0.6258 0.6258 0.78 -177.6529 274.0386)" class="st3" cx="300.87" cy="389.65" rx="5.59" ry="8.54" id="ellipse192"/>
	
	<path class="st6" d="M324.75,282.31c-13.45,4.54-17.13,8.22-21.67,21.67c-4.54-13.45-8.22-17.13-21.67-21.67   c13.45-4.54,17.13-8.22,21.67-21.67C307.62,274.1,311.3,277.78,324.75,282.31z" id="path196"/>
	<path class="st6" d="M701.94,599.62c-12.2,4.12-15.53,7.45-19.65,19.65c-4.12-12.2-7.45-15.53-19.65-19.65   c12.2-4.12,15.53-7.45,19.65-19.65C686.4,592.17,689.74,595.5,701.94,599.62z" id="path198"/>
	<path class="st6" d="M334.12,246.28c-8.92,3.01-11.36,5.45-14.37,14.37c-3.01-8.92-5.45-11.36-14.37-14.37   c8.92-3.01,11.36-5.45,14.37-14.37C322.76,240.82,325.2,243.26,334.12,246.28z" id="path200"/>
</g>
</svg>