<?xml version="1.0" encoding="iso-8859-1"?>
<!-- Generator: Adobe Illustrator 18.0.0, SVG Export Plug-In . SVG Version: 6.00 Build 0)  -->
<!DOCTYPE svg PUBLIC "-//W3C//DTD SVG 1.1//EN" "http://www.w3.org/Graphics/SVG/1.1/DTD/svg11.dtd">
<svg version="1.1" id="Capa_1" xmlns="http://www.w3.org/2000/svg" xmlns:xlink="http://www.w3.org/1999/xlink" x="0px" y="0px"
	 viewBox="0 0 60 60" style="enable-background:new 0 0 60 60;" xml:space="preserve">
<g>
	<path fill="white" d="M60,34c0-0.266-0.105-0.52-0.293-0.707c-0.88-0.88-1.363-2.049-1.363-3.293s0.483-2.413,1.363-3.293
		C59.895,26.52,60,26.266,60,26s-0.105-0.52-0.293-0.707c-0.88-0.88-1.363-2.049-1.363-3.293s0.483-2.413,1.363-3.293
		c0.337-0.337,0.39-0.865,0.125-1.262l-0.738-1.109c-0.542-0.812-0.542-1.86,0-2.673l0.738-1.108
		c0.265-0.396,0.212-0.925-0.125-1.262l-3-3c-0.338-0.338-0.865-0.391-1.262-0.125l-1.109,0.738c-0.793,0.531-1.878,0.531-2.673,0
		l-1.108-0.738c-0.397-0.265-0.924-0.212-1.262,0.125c-0.88,0.88-2.049,1.364-3.293,1.364s-2.414-0.484-3.293-1.364
		c-0.375-0.375-1.039-0.375-1.414,0C40.414,9.173,39.244,9.658,38,9.658s-2.414-0.484-3.293-1.364c-0.375-0.375-1.039-0.375-1.414,0
		C32.414,9.173,31.244,9.658,30,9.658s-2.414-0.484-3.293-1.364c-0.375-0.375-1.039-0.375-1.414,0
		C24.414,9.173,23.244,9.658,22,9.658s-2.414-0.484-3.293-1.364c-0.375-0.375-1.039-0.375-1.414,0
		C16.414,9.173,15.244,9.658,14,9.658s-2.414-0.484-3.293-1.364c-0.336-0.337-0.864-0.39-1.262-0.125L8.337,8.907
		c-0.795,0.531-1.878,0.531-2.674,0L4.555,8.168C4.157,7.903,3.63,7.956,3.293,8.293l-3,3c-0.337,0.337-0.39,0.865-0.125,1.262
		l0.739,1.108c0.542,0.813,0.542,1.861,0,2.674l-0.739,1.108c-0.265,0.396-0.212,0.925,0.125,1.262
		c0.879,0.88,1.364,2.049,1.364,3.293s-0.484,2.413-1.364,3.293C0.106,25.481,0,25.735,0,26s0.105,0.52,0.293,0.707
		c0.879,0.88,1.364,2.049,1.364,3.293s-0.484,2.413-1.364,3.293C0.106,33.481,0,33.735,0,34s0.105,0.52,0.293,0.707
		c0.879,0.88,1.364,2.049,1.364,3.293s-0.484,2.413-1.364,3.293c-0.212,0.212-0.318,0.508-0.288,0.806
		c0.029,0.298,0.191,0.567,0.44,0.733c0.557,0.371,0.926,0.939,1.039,1.599c0.113,0.66-0.046,1.318-0.447,1.854L0.2,47.4
		c-0.299,0.398-0.259,0.956,0.093,1.308l3,3C3.487,51.902,3.743,52,4.001,52c0.21,0,0.421-0.065,0.6-0.2l1.116-0.837
		c1.071-0.805,2.714-0.516,3.452,0.592c0.166,0.249,0.436,0.411,0.733,0.44c0.304,0.03,0.594-0.076,0.806-0.288
		c0.879-0.88,2.049-1.363,3.293-1.363s2.414,0.483,3.293,1.363c0.375,0.375,1.039,0.375,1.414,0c0.879-0.88,2.049-1.363,3.293-1.363
		s2.414,0.483,3.293,1.363c0.375,0.375,1.039,0.375,1.414,0c0.879-0.88,2.049-1.363,3.293-1.363s2.414,0.483,3.293,1.363
		c0.375,0.375,1.039,0.375,1.414,0c0.879-0.88,2.049-1.363,3.293-1.363s2.414,0.483,3.293,1.363c0.375,0.375,1.039,0.375,1.414,0
		c0.879-0.88,2.049-1.363,3.293-1.363s2.413,0.483,3.293,1.363c0.212,0.212,0.502,0.316,0.806,0.288
		c0.298-0.029,0.567-0.191,0.733-0.44c0.738-1.107,2.383-1.395,3.452-0.592l1.115,0.837c0.398,0.297,0.955,0.26,1.308-0.093l3-3
		c0.352-0.352,0.392-0.909,0.093-1.308l-0.837-1.114c-0.401-0.536-0.561-1.194-0.447-1.854c0.113-0.66,0.482-1.229,1.039-1.6
		c0.249-0.166,0.411-0.436,0.44-0.733s-0.076-0.594-0.288-0.806c-0.88-0.88-1.363-2.049-1.363-3.293s0.483-2.413,1.363-3.293
		C59.895,34.52,60,34.266,60,34z M57.678,26c-0.866,1.147-1.334,2.537-1.334,4s0.468,2.853,1.334,4
		c-0.866,1.147-1.334,2.537-1.334,4c0,1.419,0.44,2.771,1.258,3.897c-0.549,0.609-0.914,1.363-1.057,2.196
		c-0.207,1.207,0.083,2.411,0.818,3.392l0.316,0.421l-1.773,1.773l-0.422-0.316c-1.652-1.24-4.089-1.098-5.586,0.239
		c-2.288-1.661-5.637-1.632-7.898,0.075c-1.147-0.866-2.538-1.334-4-1.334s-2.853,0.468-4,1.334c-1.147-0.866-2.538-1.334-4-1.334
		s-2.853,0.468-4,1.334c-1.147-0.866-2.538-1.334-4-1.334s-2.853,0.468-4,1.334c-2.26-1.706-5.61-1.735-7.898-0.075
		c-1.496-1.337-3.933-1.479-5.586-0.239L4.094,49.68L2.32,47.907l0.316-0.422c0.735-0.979,1.026-2.184,0.819-3.392
		c-0.143-0.833-0.509-1.586-1.057-2.196C3.216,40.771,3.657,39.419,3.657,38c0-1.463-0.468-2.853-1.334-4
		c0.866-1.147,1.334-2.537,1.334-4s-0.468-2.853-1.334-4c0.866-1.147,1.334-2.537,1.334-4c0-1.498-0.492-2.921-1.399-4.084
		l0.313-0.47c0.991-1.486,0.991-3.406,0-4.893l-0.284-0.426l1.841-1.841l0.425,0.283c1.455,0.971,3.44,0.971,4.894,0l0.469-0.313
		c1.163,0.907,2.586,1.399,4.084,1.399c1.462,0,2.853-0.469,4-1.335c1.147,0.866,2.538,1.335,4,1.335s2.853-0.469,4-1.335
		c1.147,0.866,2.538,1.335,4,1.335s2.853-0.469,4-1.335c1.147,0.866,2.538,1.335,4,1.335s2.853-0.469,4-1.335
		c1.147,0.866,2.538,1.335,4,1.335c1.499,0,2.922-0.492,4.085-1.399l0.468,0.313c1.455,0.971,3.44,0.971,4.894,0l0.426-0.284
		l1.842,1.842l-0.284,0.425c-0.992,1.487-0.992,3.407,0,4.894l0.313,0.469c-0.907,1.163-1.398,2.586-1.398,4.085
		C56.344,23.463,56.812,24.853,57.678,26z"/>
	<path fill="white" d="M53,14H7c-0.552,0-1,0.447-1,1v30c0,0.553,0.448,1,1,1h46c0.553,0,1-0.447,1-1V15C54,14.448,53.553,14,53,14z M24,42
		c-3.309,0-6-2.691-6-6s2.691-6,6-6s6,2.691,6,6S27.309,42,24,42z M48.77,39.639C48.042,40.517,47.058,41,46,41
		c-1.058,0-2.042-0.483-2.77-1.361c-0.683-0.824-1.778-0.824-2.461,0C40.042,40.517,39.058,41,38,41s-2.042-0.483-2.77-1.361
		c-0.683-0.824-1.778-0.824-2.461,0c-0.353,0.426-0.983,0.485-1.408,0.131c-0.425-0.353-0.484-0.982-0.131-1.408
		C31.959,37.484,32.942,37,34,37s2.042,0.483,2.77,1.361c0.683,0.824,1.778,0.824,2.461,0C39.959,37.484,40.942,37,42,37
		s2.042,0.483,2.77,1.361c0.683,0.824,1.778,0.824,2.461,0c0.351-0.424,0.982-0.484,1.408-0.131
		C49.064,38.583,49.122,39.213,48.77,39.639z M48.77,33.639C48.042,34.517,47.058,35,46,35c-1.058,0-2.042-0.483-2.77-1.361
		c-0.683-0.824-1.778-0.824-2.461,0C40.042,34.517,39.058,35,38,35s-2.042-0.483-2.77-1.361c-0.683-0.824-1.778-0.824-2.461,0
		c-0.353,0.426-0.983,0.484-1.408,0.131c-0.425-0.353-0.484-0.982-0.131-1.408C31.959,31.484,32.942,31,34,31
		s2.042,0.483,2.77,1.361c0.683,0.824,1.778,0.824,2.461,0C39.959,31.484,40.942,31,42,31s2.042,0.483,2.77,1.361
		c0.683,0.824,1.778,0.824,2.461,0c0.351-0.424,0.982-0.485,1.408-0.131C49.064,32.583,49.122,33.213,48.77,33.639z"/>
</g>
<g>
</g>
<g>
</g>
<g>
</g>
<g>
</g>
<g>
</g>
<g>
</g>
<g>
</g>
<g>
</g>
<g>
</g>
<g>
</g>
<g>
</g>
<g>
</g>
<g>
</g>
<g>
</g>
<g>
</g>
</svg>
