<?xml version="1.0" encoding="utf-8"?>
<!-- Generator: Adobe Illustrator 26.3.1, SVG Export Plug-In . SVG Version: 6.00 Build 0)  -->
<svg version="1.1" id="Layer_1" xmlns="http://www.w3.org/2000/svg" xmlns:xlink="http://www.w3.org/1999/xlink" x="0px" y="0px"
	 viewBox="0 0 1000 1000" style="enable-background:new 0 0 1000 1000;" xml:space="preserve">
<style type="text/css">
	.st0{fill:#7446B9;}
	.st1{fill:#5E2FA7;}
	.st2{fill:#351164;}
	.st3{fill:#9C69E3;}
	.st4{fill:#EC3C67;}
	.st5{opacity:0.5;fill:#5E2FA7;}
	.st6{fill:#FFDB29;}
	.st7{fill:#FFFFFF;}
	.st8{opacity:0.3;}
	.st9{opacity:0.3;fill:#FFFFFF;}
</style>
<g>
	<g>
		<g>
			<path class="st2" d="M454.45,329.83c-4.1,0-8.31-0.89-12.43-2.68c-10.13-4.4-18.35-13.62-21.44-24.07
				c-5.16-17.4,0.89-35.24,6.73-48.84c0.93-2.15,1.88-4.31,2.84-6.46c4.98-11.21,9.68-21.79,10.21-32.77
				c0.89-18.35-10.17-33.6-16.85-41.07c-10.44-11.68-23.9-20.7-39.14-30.45c-3.88-2.48-5.02-7.64-2.53-11.53
				c2.48-3.88,7.64-5.02,11.53-2.53c16.29,10.42,30.74,20.13,42.59,33.38c14.46,16.17,21.95,35,21.08,53
				c-0.68,14.09-6.25,26.62-11.63,38.74c-0.93,2.09-1.86,4.19-2.76,6.28c-4.73,11.02-9.7,25.24-6.06,37.51
				c1.71,5.75,6.45,11.06,12.09,13.51c2.66,1.15,6.62,2.13,10.45,0.22c4.12-2.06,9.14-0.38,11.19,3.74
				c2.06,4.12,0.38,9.14-3.74,11.19C462.78,328.88,458.67,329.83,454.45,329.83z"/>
		</g>
		<g>
			<g>
				<path class="st0" d="M341.17,425.29c-11.48,7.54-24.58,11.96-37.7,15.68c-14.88,4.22-35.93,5.86-44.94,20.35
					c-11.33,18.22,5.42,34.11,20.93,41.9c42.81,21.5,93.51,0.65,130.32-23.42"/>
				<path class="st1" d="M272.52,499.19c-1.86-10.23-0.61-19.96,8.91-23.68c23.42-9.15,57.09,30.26,57.09,30.26l5.84,3.39
					c23.52-5.29,46.34-16.89,65.42-29.37l-68.62-54.51c-11.48,7.54-24.58,11.96-37.7,15.68c-14.88,4.22-35.93,5.86-44.94,20.35
					C248.89,476.81,259.57,490.62,272.52,499.19z"/>
				<g>
					<path class="st2" d="M318.65,520.54c-15.48,0-29.84-3.29-42.93-9.87c-6.96-3.5-23.63-13.36-28.15-29.4
						c-2.3-8.17-0.96-16.6,3.88-24.37c9.01-14.49,26.45-18.48,40.46-21.68c3.33-0.76,6.47-1.48,9.3-2.28
						c11.99-3.4,24.58-7.53,35.39-14.62c3.85-2.53,9.03-1.46,11.56,2.4c2.53,3.85,1.46,9.03-2.4,11.56
						c-12.69,8.33-26.72,12.96-40,16.73c-3.24,0.92-6.58,1.68-10.13,2.5c-12.13,2.78-24.67,5.65-30.01,14.23
						c-2.39,3.84-3.02,7.35-1.98,11.03c1.86,6.59,9.36,13.87,19.58,19c42.76,21.48,94.8-5.16,122.01-22.94
						c3.86-2.52,9.03-1.44,11.55,2.42s1.44,9.03-2.42,11.55c-22.54,14.73-44.58,24.8-65.5,29.91
						C338.38,519.26,328.3,520.54,318.65,520.54z"/>
				</g>
			</g>
			<g>
				<path class="st0" d="M396.24,379.09c-12.98-2.05-25.1-7.34-36.79-13.14c-13.25-6.58-29.22-18.96-44.92-14.5
					c-19.75,5.62-18.1,27.65-12.13,43.14c16.49,42.76,65.82,60.61,107.37,67.24"/>
				<path class="st1" d="M396.24,379.09c-12.98-2.05-25.1-7.34-36.79-13.14c-2.06-1.02-4.19-2.19-6.37-3.41
					c-0.04,2.13,0.27,4.35,0.43,6.41c0.65,8.12,0.25,16.82-6.41,22.54c-8.03,6.89-20.91,4.92-29.25-1.58
					c-8.3-6.47-13.16-16.28-17.64-25.8c-3.48,9.11-1.45,21.02,2.2,30.49c15.65,40.59,60.88,58.72,100.96,66.13
					c1.9-1.41,3.74-2.91,5.49-4.51L396.24,379.09z"/>
				<g>
					<path class="st2" d="M409.79,470.18c-0.44,0-0.88-0.03-1.33-0.11c-25.48-4.07-47.61-11.13-65.75-20.98
						c-23.69-12.87-39.88-30.19-48.09-51.5c-2.7-7-8.2-24.82-1.02-39.22c3.67-7.36,10.12-12.53,18.65-14.96
						c15.84-4.51,30.83,3.92,42.88,10.7c2.84,1.6,5.53,3.11,8.04,4.35c10.66,5.29,22.2,10.46,34.37,12.38
						c4.55,0.72,7.66,4.99,6.94,9.54c-0.72,4.55-4.99,7.67-9.54,6.94c-14.4-2.27-27.35-8.03-39.2-13.91
						c-2.89-1.44-5.76-3.05-8.79-4.75c-10.31-5.8-20.98-11.8-30.13-9.19c-4.06,1.16-6.69,3.17-8.28,6.35
						c-2.88,5.77-2.25,15.65,1.65,25.76c16.41,42.55,70.26,57.11,100.9,62.01c4.55,0.73,7.65,5.01,6.92,9.56
						C417.37,467.26,413.82,470.18,409.79,470.18z"/>
				</g>
			</g>
			<g>
				<path class="st0" d="M460.77,334.74c-12.98-2.05-25.1-7.34-36.79-13.14c-13.25-6.58-29.22-18.96-44.92-14.5
					c-19.75,5.62-18.1,27.65-12.13,43.15c16.49,42.76,65.82,60.61,107.37,67.24"/>
				<path class="st1" d="M460.77,334.74c-12.98-2.05-25.1-7.34-36.79-13.14c-2.06-1.02-4.19-2.19-6.37-3.41
					c-0.04,2.13,0.27,4.35,0.43,6.41c0.65,8.12,0.25,16.82-6.41,22.54c-8.03,6.89-20.91,4.92-29.25-1.58
					c-8.3-6.47-13.16-16.28-17.64-25.8c-3.48,9.11-1.45,21.02,2.2,30.49c15.65,40.59,60.88,58.72,100.96,66.13
					c1.9-1.41,3.74-2.91,5.49-4.51L460.77,334.74z"/>
				<g>
					<path class="st2" d="M474.32,425.83c-0.44,0-0.88-0.03-1.33-0.11c-25.48-4.07-47.61-11.13-65.75-20.98
						c-23.69-12.87-39.88-30.19-48.09-51.5c-2.7-7-8.2-24.82-1.02-39.22c3.67-7.36,10.12-12.53,18.65-14.96
						c15.84-4.51,30.83,3.92,42.88,10.7c2.84,1.6,5.53,3.11,8.04,4.35c10.66,5.29,22.2,10.46,34.37,12.38
						c4.55,0.72,7.66,4.99,6.94,9.54c-0.72,4.55-4.99,7.67-9.54,6.94c-14.4-2.27-27.35-8.03-39.2-13.91
						c-2.89-1.44-5.76-3.05-8.79-4.75c-10.31-5.8-20.98-11.8-30.13-9.19c-4.06,1.16-6.69,3.17-8.28,6.35
						c-2.88,5.77-2.25,15.65,1.65,25.76c16.41,42.55,70.26,57.11,100.9,62.01c4.55,0.73,7.65,5.01,6.92,9.56
						C481.89,422.91,478.35,425.83,474.32,425.83z"/>
				</g>
			</g>
			<g>
				<path class="st0" d="M601.8,343.01c13.17-3.88,25.02-11,36.34-18.6c12.84-8.61,27.72-23.61,44.59-21.1
					c21.23,3.15,22.5,26.21,18.4,43.07c-11.31,46.55-60.01,71.72-102.18,84.21"/>
				<path class="st1" d="M692.53,367.94c-3.93,4.03-10.15,5.63-15.66,4.26c-6.06-1.51-11.06-6.26-13.53-11.99
					c-2.46-5.74-2.53-12.34-0.86-18.36c2.18-7.85,7.51-15.02,14.95-18.35c7.44-3.33,16.93-2.27,22.76,3.42
					c0.93,0.91,1.84,1.94,2.76,2.94c-0.4-12.62-5.52-24.36-20.23-26.54c-16.88-2.5-31.75,12.49-44.59,21.1
					c-10.74,7.2-21.96,13.95-34.32,17.94c1.57,16.71,7.2,33.02,16.34,47.1c3.37,5.19,7.32,10.18,12.57,13.44
					c6.07,3.77,13.46,4.85,20.59,3.96C669.38,396.75,683.41,383.97,692.53,367.94z"/>
				<g>
					<path class="st2" d="M598.96,438.95c-3.6,0-6.92-2.35-8-5.98c-1.31-4.42,1.21-9.06,5.63-10.37
						c31.17-9.24,85.14-31.68,96.44-78.18c2.7-11.11,2-21.54-1.82-27.22c-2.14-3.17-5.22-4.96-9.7-5.63
						c-10-1.49-20.3,6.22-30.27,13.67c-2.91,2.18-5.66,4.23-8.45,6.11c-11.46,7.69-24.07,15.39-38.64,19.67
						c-4.42,1.3-9.06-1.23-10.36-5.65c-1.3-4.42,1.23-9.06,5.65-10.36c12.4-3.65,23.7-10.58,34.05-17.52
						c2.44-1.64,5.02-3.57,7.75-5.61c11.51-8.61,25.84-19.32,42.71-16.81c9.06,1.34,16.35,5.78,21.09,12.81
						c9.31,13.82,6.04,32.92,4.2,40.48c-5.61,23.1-19.99,43.18-42.73,59.66c-17.44,12.64-39.37,22.93-65.19,30.58
						C600.54,438.83,599.74,438.95,598.96,438.95z"/>
				</g>
			</g>
			<g>
				<path class="st0" d="M537.34,318.76c7.18-11,11.38-23.54,14.91-36.11c4-14.25,5.52-34.39,19.35-43.05
					c17.41-10.89,32.65,5.1,40.14,19.92c20.68,40.91,0.85,89.47-22.08,124.75"/>
				<path class="st1" d="M602.1,356.78c4.08-6.85,4-15.99,1.78-23.42c-2.91-9.74-9.15-18.07-14.96-26.42
					c-5.81-8.34-11.44-17.28-12.81-27.36c-1.37-10.08,2.69-21.57,11.89-25.9c8.24-3.88,18.93-0.04,23.64,7.56
					c-1.46-3.25-2.99-6.48-4.64-9.63c-8.28-11.78-21.11-20.96-35.41-12.02c-13.84,8.66-15.35,28.81-19.35,43.05
					c-3.53,12.56-7.72,25.11-14.91,36.11l35.47,44.42c4.61,0.01,9.22-0.17,13.77-0.41C592.99,362.43,598.49,362.84,602.1,356.78z"/>
				<g>
					<path class="st2" d="M589.65,392.63c-1.56,0-3.14-0.44-4.54-1.35c-3.86-2.51-4.96-7.68-2.45-11.54
						c16.91-26.02,42.2-75.74,21.63-116.44c-4.89-9.68-11.79-16.76-18.01-18.5c-3.42-0.95-6.68-0.35-10.26,1.88
						c-8.07,5.05-10.77,16.98-13.38,28.52c-0.77,3.4-1.49,6.6-2.37,9.71c-3.58,12.74-7.98,26.21-15.95,38.41
						c-2.52,3.86-7.69,4.95-11.55,2.43c-3.86-2.52-4.95-7.69-2.43-11.55c6.74-10.32,10.64-22.34,13.86-33.8
						c0.76-2.7,1.44-5.7,2.16-8.88c3.05-13.48,6.84-30.25,20.81-38.99c7.52-4.7,15.68-6.02,23.6-3.81
						c15.5,4.32,25.04,20.35,28.42,27.04c10.3,20.38,12.31,44,5.98,70.21c-4.85,20.07-14.44,41.22-28.51,62.85
						C595.06,391.29,592.38,392.63,589.65,392.63z"/>
				</g>
			</g>
			<g>
				<path class="st0" d="M453.78,340.65c7.18-11,11.38-23.54,14.91-36.11c4-14.25,5.52-34.39,19.35-43.05
					c17.41-10.89,32.65,5.1,40.14,19.92c20.68,40.91,0.85,89.47-22.08,124.75"/>
				<path class="st1" d="M518.54,378.66c4.08-6.85,4-15.99,1.78-23.42c-2.91-9.74-9.15-18.07-14.96-26.42
					c-5.81-8.34-11.44-17.28-12.81-27.36c-1.37-10.08,2.69-21.57,11.89-25.9c8.24-3.88,18.93-0.04,23.64,7.56
					c-1.46-3.25-2.99-6.48-4.64-9.63c-8.28-11.78-21.11-20.96-35.41-12.02c-13.84,8.66-15.35,28.81-19.35,43.05
					c-3.53,12.56-7.72,25.11-14.91,36.11l35.47,44.42c4.61,0.01,9.22-0.17,13.77-0.41C509.43,384.32,514.93,384.72,518.54,378.66z"
					/>
				<g>
					<path class="st2" d="M506.1,414.51c-1.56,0-3.14-0.44-4.54-1.35c-3.86-2.51-4.96-7.68-2.45-11.54
						c16.91-26.02,42.2-75.74,21.63-116.44c-4.89-9.68-11.79-16.76-18.01-18.5c-3.42-0.95-6.68-0.35-10.26,1.88
						c-8.07,5.05-10.77,16.98-13.38,28.52c-0.77,3.4-1.49,6.6-2.37,9.71c-3.58,12.74-7.98,26.21-15.95,38.41
						c-2.52,3.86-7.69,4.95-11.55,2.43c-3.86-2.52-4.95-7.69-2.43-11.55c6.74-10.32,10.64-22.35,13.86-33.8
						c0.76-2.7,1.44-5.7,2.16-8.88c3.05-13.48,6.84-30.25,20.81-38.99c7.52-4.7,15.68-6.02,23.6-3.81
						c15.5,4.32,25.04,20.35,28.42,27.05c10.3,20.38,12.31,44,5.98,70.21c-4.85,20.07-14.44,41.22-28.51,62.85
						C511.5,413.17,508.83,414.51,506.1,414.51z"/>
				</g>
			</g>
			<g id="XMLID_00000017487257777236138690000017245252815375923350_">
				<g>
					<path class="st0" d="M368.88,529.01c-23.72-35.84-35.34-79.93-22.25-118.02c15.68-45.65,55.29-73.75,93.21-91.65
						c37.98-17.96,83.44-27.1,127.97-9.63c27.17,10.66,50.02,31.73,64.95,64.96c16.05,35.71,19.75,75.1,14.47,110.48
						c-7.15,48.09-30.85,94-67.76,114.93c-20.02,11.35-43.38,15.81-67.22,14.45c-43.59-2.44-90.32-24.05-125.27-62.29
						C380.41,545.05,374.32,537.25,368.88,529.01z"/>
				</g>
				<g>
					<path class="st1" d="M368.88,529.01c5.44,8.24,11.54,16.04,18.1,23.23c34.95,38.24,81.68,59.84,125.27,62.29
						c18.15,1.04,36.02-1.31,52.36-7.5c-13.52,5-28.27,6.89-43.25,6.04c-36.54-2.05-75.71-20.16-105.01-52.21
						c-5.5-6.03-10.61-12.56-15.17-19.47c-19.89-30.04-29.63-67-18.65-98.93c13.14-38.27,46.35-61.82,78.14-76.83
						c31.84-15.05,69.95-22.71,107.27-8.07c22.78,8.93,41.93,26.6,54.44,54.45c13.45,29.93,16.56,62.95,12.13,92.61
						c-5.99,40.31-25.86,78.79-56.8,96.34c-2.07,1.17-4.18,2.25-6.33,3.25c2.75-1.26,5.46-2.63,8.1-4.13
						c36.91-20.93,60.61-66.84,67.76-114.93c5.28-35.38,1.57-74.78-14.47-110.48c-14.93-33.23-37.78-54.3-64.95-64.96
						c-44.52-17.47-89.99-8.33-127.97,9.63c-37.92,17.9-77.53,46-93.21,91.65C333.54,449.07,345.15,493.17,368.88,529.01z"/>
					<path class="st1" d="M571,604.37c-2.07,0.95-4.17,1.83-6.3,2.62C566.82,606.18,568.93,605.31,571,604.37z"/>
				</g>
				<g>
					<g>
						<path class="st2" d="M520.44,623.1c-2.87,0-5.75-0.08-8.66-0.25c-47.93-2.69-95.66-26.38-130.95-64.99
							c-6.91-7.57-13.27-15.73-18.9-24.26c-27.72-41.87-36.17-87.55-23.18-125.33c13.72-39.94,46.54-72.41,97.54-96.49
							c47.38-22.4,93.91-25.8,134.58-9.85c30.91,12.12,54.3,35.44,69.51,69.3c15.64,34.79,21,75.68,15.11,115.14
							c-8.15,54.83-35.03,100.05-71.9,120.96C565.28,617.71,543.6,623.1,520.44,623.1z M517.85,308.75
							c-28.59,0-54.8,8.84-74.44,18.13c-46.78,22.09-76.69,51.3-88.89,86.82c-11.13,32.36-3.16,73.74,21.31,110.7l0.01,0.01
							c5.15,7.8,10.97,15.27,17.3,22.2c31.89,34.9,76.6,57.17,119.57,59.58c23.21,1.32,44.87-3.3,62.64-13.38
							c31.95-18.12,56.33-59.84,63.63-108.89c5.42-36.34,0.51-73.92-13.83-105.84c-13.37-29.74-33.68-50.13-60.39-60.61
							C548.88,311.24,533.03,308.75,517.85,308.75z"/>
					</g>
				</g>
			</g>
			<g>
				<g>
					<path class="st0" d="M401.33,686.39c22,28.97,54.4,51.98,87.06,64.3c54.91,20.71,117.89,17.33,167.22-13.86
						c33.46-21.15,59.39-53.07,74.47-89.91c14.52-35.47,19.32-75.45,11.09-113.55c-2.2-10.17-5.41-20.14-9.72-29.64
						c-15.11-33.33-40.77-53.32-72.58-62.11c-43.72-12.09-99.08-3-154.67,21.76c-56.7,25.26-100.92,61.16-120.27,102.62
						C363.77,609.24,375.22,652.01,401.33,686.39z"/>
					<path class="st3" d="M714.4,488.52c4.31,9.5,7.52,19.47,9.72,29.64c8.23,38.1,3.43,78.08-11.09,113.55
						c-15.08,36.84-41.01,68.76-74.47,89.91c-49.33,31.18-112.31,34.57-167.22,13.86c-18.77-7.08-37.44-17.71-54.11-30.95
						c20.35,20.4,45.67,36.56,71.17,46.18c54.91,20.71,117.89,17.33,167.22-13.86c33.46-21.15,59.39-53.07,74.47-89.91
						c14.52-35.47,19.32-75.45,11.09-113.55c-2.2-10.17-5.41-20.14-9.72-29.64c-8.83-19.48-21.29-34.37-36.45-45.17
						C702.62,467.02,709.16,476.95,714.4,488.52z"/>
					<path class="st1" d="M400.42,686.1l0.01,0.02c0.05,0.06,0.1,0.12,0.13,0.18c1.47,1.89,2.94,3.76,4.49,5.59
						c0.8,0.97,1.6,1.91,2.43,2.85c0.81,0.94,1.67,1.89,2.52,2.81c0.83,0.93,1.7,1.85,2.57,2.76c0.84,0.9,1.72,1.78,2.58,2.67
						c0.07,0.05,0.13,0.13,0.19,0.19c1.72,1.73,3.5,3.43,5.31,5.11c0.96,0.9,1.94,1.76,2.92,2.63c0.94,0.85,1.91,1.7,2.9,2.53
						c0.99,0.83,1.97,1.67,2.98,2.49c0.86,0.73,1.73,1.42,2.64,2.13c7.87,6.23,16.3,11.92,25.22,17.06
						c0.97,0.57,1.95,1.11,2.94,1.67c5.32,2.97,10.82,5.7,16.44,8.2c0.9,0.41,1.82,0.82,2.75,1.21c9.2,3.98,18.75,7.37,28.54,10.02
						c1.51,0.41,3.01,0.83,4.52,1.19c1.52,0.38,3.03,0.76,4.55,1.09c1.47,0.35,2.96,0.66,4.44,0.95c0.07,0.05,0.15,0.04,0.23,0.06
						c1.51,0.3,3.01,0.61,4.52,0.86c1.55,0.29,3.09,0.55,4.64,0.78c1.51,0.25,3.03,0.47,4.54,0.69c4.91,0.66,9.87,1.13,14.83,1.41
						c1.28,0.08,2.57,0.13,3.86,0.18c0.08,0.02,0.18,0,0.26,0.02c1.52,0.05,3.06,0.1,4.61,0.11c3.11,0.05,6.24,0.01,9.36-0.1
						c0.02-0.01,0.05,0,0.07-0.01c1.57-0.05,3.16-0.13,4.73-0.24c1.26-0.07,2.51-0.17,3.78-0.27c0.96-0.07,1.93-0.16,2.88-0.25
						c0.5-0.06,1-0.09,1.5-0.15c1.13-0.13,2.29-0.26,3.43-0.42c0.1,0.01,0.2-0.01,0.32-0.03c1.06-0.12,2.13-0.27,3.19-0.45
						c1.26-0.18,2.5-0.35,3.74-0.58c1.27-0.21,2.54-0.43,3.79-0.69c0.68-0.11,1.36-0.25,2.03-0.39c2.05-0.4,4.1-0.85,6.15-1.36
						c1.83-0.44,3.67-0.9,5.51-1.43c1.02-0.26,2.03-0.55,3.03-0.86c0.58-0.18,1.19-0.34,1.76-0.54c0.76-0.23,1.52-0.46,2.26-0.71
						c0.84-0.27,1.68-0.53,2.54-0.83c1.13-0.37,2.23-0.78,3.34-1.19c1.05-0.36,2.12-0.75,3.17-1.17c1.15-0.43,2.31-0.89,3.46-1.38
						c1.52-0.62,3-1.26,4.5-1.92c1.5-0.67,2.96-1.35,4.44-2.06c1.13-0.53,2.25-1.08,3.33-1.65c0.14-0.07,0.28-0.15,0.43-0.22
						c-0.71,0.27-1.42,0.54-2.13,0.78c-1,0.37-2.01,0.75-3.03,1.08c-0.77,0.27-1.54,0.51-2.3,0.75c-0.68,0.23-1.37,0.44-2.05,0.64
						c-0.52,0.18-1.07,0.33-1.59,0.49c-0.91,0.28-1.82,0.54-2.75,0.78c-1.67,0.47-3.34,0.9-5,1.29c-1.86,0.46-3.72,0.87-5.58,1.23
						c-0.61,0.12-1.22,0.25-1.84,0.35c-1.13,0.24-2.29,0.43-3.44,0.62c-1.12,0.21-2.25,0.36-3.39,0.53c-0.96,0.16-1.93,0.3-2.9,0.41
						c-0.1,0.02-0.19,0.04-0.29,0.03c-1.04,0.14-2.09,0.27-3.12,0.38c-0.46,0.06-0.9,0.08-1.36,0.14c-0.86,0.09-1.74,0.16-2.61,0.23
						c-1.15,0.1-2.29,0.18-3.43,0.25c-1.43,0.1-2.87,0.17-4.29,0.22c-0.02,0.01-0.05,0-0.07,0.01c-2.83,0.1-5.66,0.14-8.49,0.09
						c-1.41-0.01-2.81-0.05-4.18-0.1c-0.08-0.02-0.16,0-0.24-0.02c-1.17-0.04-2.34-0.09-3.5-0.16c-4.51-0.25-9-0.69-13.45-1.28
						c-1.38-0.2-2.75-0.4-4.12-0.62c-1.41-0.21-2.8-0.45-4.21-0.71c-1.37-0.23-2.73-0.5-4.1-0.78c-0.08-0.02-0.14-0.01-0.21-0.05
						c-1.34-0.26-2.69-0.55-4.02-0.86c-1.38-0.3-2.75-0.64-4.13-0.99c-1.37-0.33-2.73-0.7-4.1-1.08
						c-8.88-2.41-17.54-5.48-25.89-9.09c-0.85-0.36-1.68-0.72-2.5-1.1c-5.1-2.28-10.08-4.75-14.91-7.44c-0.9-0.51-1.79-1-2.66-1.52
						c-8.09-4.66-15.74-9.83-22.87-15.47c-0.82-0.64-1.61-1.27-2.39-1.93c-0.91-0.75-1.81-1.51-2.7-2.26
						c-0.89-0.76-1.77-1.52-2.63-2.3c-0.88-0.79-1.77-1.57-2.64-2.39c-1.64-1.53-3.25-3.07-4.82-4.64c-0.05-0.05-0.1-0.13-0.17-0.17
						c-0.78-0.81-1.58-1.61-2.34-2.42c-0.79-0.83-1.58-1.66-2.33-2.5c-0.77-0.84-1.55-1.69-2.28-2.55c-0.75-0.85-1.48-1.7-2.2-2.58
						c-1.4-1.66-2.74-3.35-4.07-5.07c-0.03-0.06-0.07-0.11-0.12-0.17l-0.01-0.02c-6.15-8.05-11.33-16.58-15.35-25.44
						c-13.27-29.26-11.91-57.67,0.32-83.67c17.6-37.48,57.74-69.99,109.17-92.9c50.41-22.46,100.6-30.75,140.21-19.91
						c26.39,7.22,48.06,22.97,62,48.67c-1.06-2.81-2.18-5.59-3.41-8.3c-15.03-33.17-40.64-53.03-72.41-61.73
						c-43.66-11.96-99-2.81-154.58,21.95c-56.7,25.26-100.95,61.09-120.36,102.42c-13.49,28.66-14.98,59.98-0.36,92.24
						C387.93,667.81,393.63,677.22,400.42,686.1z"/>
				</g>
				<g>
					<g>
						<g>
							<path class="st4" d="M457.14,584.16c2.74-1.22,6.02,0.1,7.31,2.96l3.55,7.84c1.29,2.86,0.12,6.16-2.62,7.38
								c-2.74,1.22-6.02-0.1-7.31-2.96l-3.55-7.84C453.22,588.69,454.4,585.39,457.14,584.16z"/>
						</g>
					</g>
					<g>
						<g>
							<path class="st4" d="M438.8,592.33c2.74-1.22,6.02,0.1,7.31,2.96l3.55,7.84c1.29,2.86,0.12,6.16-2.62,7.38
								c-2.74,1.22-6.02-0.1-7.31-2.96l-3.55-7.84C434.88,596.86,436.05,593.56,438.8,592.33z"/>
						</g>
					</g>
					<g>
						<g>
							<path class="st4" d="M421.97,599.83c2.74-1.22,6.02,0.1,7.31,2.96l3.55,7.84c1.29,2.86,0.12,6.16-2.62,7.38
								c-2.74,1.22-6.02-0.1-7.31-2.96l-3.55-7.84C418.05,604.36,419.22,601.05,421.97,599.83z"/>
						</g>
					</g>
					<g>
						<g>
							<path class="st4" d="M661.75,493.02c2.74-1.22,6.02,0.1,7.31,2.96l3.55,7.84c1.29,2.86,0.12,6.16-2.62,7.38
								c-2.74,1.22-6.02-0.1-7.31-2.96l-3.55-7.84C657.83,497.55,659,494.25,661.75,493.02z"/>
						</g>
					</g>
					<g>
						<g>
							<path class="st4" d="M643.42,501.19c2.74-1.22,6.02,0.1,7.31,2.96l3.55,7.84c1.29,2.86,0.12,6.16-2.62,7.38
								c-2.74,1.22-6.02-0.1-7.31-2.96l-3.55-7.84C639.5,505.71,640.68,502.41,643.42,501.19z"/>
						</g>
					</g>
					<g>
						<g>
							<path class="st4" d="M626.59,508.68c2.74-1.22,6.02,0.1,7.31,2.96l3.55,7.84c1.29,2.86,0.12,6.16-2.62,7.38
								c-2.74,1.22-6.02-0.1-7.31-2.96l-3.55-7.84C622.67,513.21,623.85,509.91,626.59,508.68z"/>
						</g>
					</g>
				</g>
				<g>
					<path class="st2" d="M560.16,770.9c-25.53,0-51.54-4.53-75.53-13.2c-27.01-9.75-50.7-24.16-70.42-42.84
						c-7.67-7.26-14.65-15.23-20.76-23.69h0c-13.82-19.13-22.92-40.48-26.32-61.73c-3.77-23.57-0.69-46.18,9.18-67.18
						c19.76-42.08,61.56-78.16,124.24-107.25c40.52-18.81,101.25-37.82,160.46-21.62c35.65,9.76,62.56,32.69,77.81,66.33
						c15.86,35,18.77,77.2,8.17,118.83c-14.54,57.17-50.34,105.92-95.76,130.42c-25.12,13.55-54.82,21.11-85.88,21.86
						C563.61,770.88,561.89,770.9,560.16,770.9z M406.98,681.39c5.5,7.62,11.79,14.8,18.71,21.34
						c35.31,33.44,87.37,52.66,139.24,51.41c28.45-0.69,55.54-7.55,78.36-19.86c40.77-21.99,74.3-67.91,87.51-119.84
						c9.66-37.98,7.11-76.27-7.2-107.83c-13.32-29.38-35.86-48.6-67.01-57.12c-54.34-14.87-111.03,3.03-149.03,20.66
						c-59.03,27.39-98.11,60.77-116.15,99.2C375.05,604.2,380.72,645.04,406.98,681.39L406.98,681.39z"/>
				</g>
			</g>
			<g>
				<g>
					
						<ellipse transform="matrix(0.6833 -0.7302 0.7302 0.6833 -348.6892 575.2601)" class="st3" cx="488.71" cy="689.54" rx="16.88" ry="23.1"/>
				</g>
				<g>
					
						<ellipse transform="matrix(0.1044 -0.9945 0.9945 0.1044 15.8867 1219.9806)" class="st3" cx="685.35" cy="601.17" rx="23.1" ry="16.88"/>
				</g>
			</g>
		</g>
		<g>
			<g>
				<g>
					
						<ellipse transform="matrix(0.9216 -0.3881 0.3881 0.9216 -191.7666 242.9472)" class="st6" cx="505.56" cy="596.22" rx="40.26" ry="42.56"/>
				</g>
				<g>
					<path class="st2" d="M493.62,567.84c14.8-6.23,32.2,1.43,38.79,17.07c6.59,15.64-0.09,33.44-14.89,39.67
						c-14.8,6.23-32.2-1.42-38.79-17.07C472.13,591.87,478.81,574.08,493.62,567.84z"/>
				</g>
				<g>
					<path class="st7" d="M516.4,591.54c4.72-1.99,10.27,0.45,12.38,5.45c2.1,4.99-0.03,10.67-4.75,12.66
						c-4.72,1.99-10.28-0.45-12.38-5.45C509.55,599.2,511.68,593.52,516.4,591.54z"/>
				</g>
				<g>
					
						<ellipse transform="matrix(0.9216 -0.3881 0.3881 0.9216 -163.7048 284.1423)" class="st6" cx="621.6" cy="547.35" rx="40.26" ry="42.56"/>
				</g>
				<g>
					<path class="st2" d="M609.65,518.98c14.8-6.23,32.2,1.43,38.79,17.07c6.59,15.64-0.09,33.44-14.89,39.67
						c-14.8,6.23-32.2-1.42-38.79-17.07C588.17,543.01,594.85,525.21,609.65,518.98z"/>
				</g>
				<g>
					<path class="st7" d="M632.36,542.19c4.72-1.99,10.27,0.45,12.38,5.45c2.1,4.99-0.03,10.67-4.75,12.66
						c-4.72,1.99-10.28-0.45-12.38-5.45C625.51,549.86,627.64,544.18,632.36,542.19z"/>
				</g>
			</g>
			<g>
				<g id="XMLID_00000071558961518976230160000000353633954571081376_">
					<g class="st8">
						<path class="st7" d="M565.4,616.15c-2.95,19.69-15.52,37.52-35.01,46.31c-30.52,13.76-66.37,0.19-80.13-30.33
							c-13.75-30.5-0.19-66.37,30.33-80.13c30.5-13.75,66.38-0.17,80.13,30.33C565.67,593.33,567.08,605.04,565.4,616.15z"/>
						<path class="st7" d="M644.98,610.35c-31.88,10.16-65.97-7.45-76.11-39.34c-10.16-31.88,7.45-65.97,39.34-76.11
							c31.9-10.17,65.97,7.45,76.13,39.33C694.48,566.11,676.87,600.21,644.98,610.35z"/>
					</g>
					<g>
						<g>
							<path class="st2" d="M626.51,621.59c-10.86,0-21.64-2.6-31.57-7.73c-16.36-8.45-28.45-22.77-34.03-40.32
								c-5.59-17.54-4.01-36.21,4.44-52.57c8.45-16.36,22.77-28.45,40.32-34.03c17.54-5.59,36.22-4.02,52.58,4.43
								c16.36,8.45,28.44,22.77,34.04,40.31c5.58,17.55,4,36.23-4.46,52.58c-8.46,16.36-22.78,28.45-40.32,34.03
								C640.62,620.5,633.55,621.59,626.51,621.59z M626.68,500.35c-5.34,0-10.7,0.83-15.94,2.5c-13.3,4.23-24.15,13.39-30.56,25.78
								c-6.41,12.4-7.6,26.55-3.36,39.84l0,0.01c4.23,13.29,13.38,24.14,25.78,30.55c12.4,6.41,26.55,7.6,39.84,3.36
								c13.3-4.23,24.15-13.39,30.56-25.79c6.41-12.4,7.61-26.55,3.38-39.86c-4.24-13.29-13.4-24.14-25.79-30.55
								C643.08,502.32,634.91,500.35,626.68,500.35z"/>
						</g>
						<g>
							<path class="st2" d="M505.58,676.16c-26.29,0-51.45-15.11-62.94-40.6l0,0c-15.62-34.65-0.14-75.55,34.51-91.17
								c34.65-15.62,75.55-0.14,91.17,34.51c5.46,12.12,7.31,25.44,5.33,38.5c-3.48,23.3-18.38,42.99-39.83,52.67
								C524.65,674.2,515.04,676.16,505.58,676.16z M457.86,628.7c11.84,26.26,42.84,37.99,69.1,26.15
								c16.26-7.33,27.55-22.26,30.19-39.94c1.5-9.9,0.1-19.98-4.04-29.16c-11.84-26.26-42.84-37.99-69.1-26.15
								C457.75,571.44,446.02,602.44,457.86,628.7L457.86,628.7z"/>
						</g>
						<g>
							<path class="st2" d="M576.27,627.1c-4.35,0-9.06-1.08-14.09-3.24c-0.29-0.12-0.6-0.26-0.9-0.41c-4.15-2.01-5.89-7-3.88-11.15
								c2.01-4.15,6.99-5.89,11.14-3.88l0.17,0.07c3.12,1.35,7.45,2.69,10.31,1.38c2.94-1.34,4.82-5.66,5.88-9.04
								c1.38-4.4,6.06-6.84,10.46-5.46c4.4,1.38,6.84,6.06,5.46,10.46c-3.02,9.62-8.02,16.08-14.86,19.22
								C582.97,626.41,579.73,627.1,576.27,627.1z"/>
						</g>
					</g>
				</g>
			</g>
			
				<ellipse transform="matrix(0.9116 -0.411 0.411 0.9116 -205.8221 277.1352)" class="st9" cx="541.57" cy="617.21" rx="10.52" ry="13.96"/>
			
				<ellipse transform="matrix(0.9116 -0.411 0.411 0.9116 -172.5957 322.1975)" class="st9" cx="662.97" cy="562.47" rx="10.52" ry="13.96"/>
		</g>
		<g id="XMLID_00000061465183554747015610000002721289036702976903_">
			<g>
				
					<ellipse transform="matrix(0.894 -0.448 0.448 0.894 -169.3388 292.4923)" class="st4" cx="533.63" cy="504.21" rx="21.55" ry="26.49"/>
			</g>
			<g>
				<g>
					<path class="st2" d="M537.34,538.12c-4.12,0-8.34-0.91-12.37-2.72c-7.62-3.43-14.04-9.75-18.07-17.79l0,0
						c-4.03-8.04-5.25-16.96-3.44-25.12c1.92-8.67,7.23-15.75,14.56-19.42c7.32-3.67,16.17-3.69,24.27-0.04
						c7.63,3.44,14.04,9.75,18.07,17.79c4.03,8.04,5.25,16.96,3.43,25.13c-1.93,8.66-7.23,15.74-14.56,19.41
						C545.56,537.2,541.49,538.12,537.34,538.12z M529.89,486.98c-1.41,0-2.91,0.27-4.39,1.01c-3.86,1.93-5.26,5.91-5.74,8.11
						c-0.97,4.36-0.22,9.48,2.06,14.02c2.28,4.55,5.93,8.22,10,10.05c2.05,0.92,6.07,2.19,9.93,0.25c3.86-1.93,5.25-5.91,5.74-8.11
						c0.97-4.36,0.22-9.48-2.06-14.03c-2.28-4.55-5.92-8.21-10-10.05C534.17,487.68,532.15,486.98,529.89,486.98z"/>
				</g>
			</g>
		</g>
		<g>
			<g>
				<polygon class="st6" points="463.89,348.8 568.25,323.71 629.82,460.28 526.33,487.29 437.55,546.96 375.98,410.39 				"/>
				<polygon class="st6" points="461.26,529.8 397.52,395.3 375.98,410.39 437.55,546.96 				"/>
				<polygon class="st6" points="528.09,488.1 464.36,353.6 447.38,360.36 509.66,498.5 				"/>
				<polygon class="st6" points="625.77,456.94 562.03,322.44 538.35,332.17 599.92,468.74 				"/>
				<path class="st2" d="M542.25,414.05l45.4-12.95c5.47-1.56,11.17,1.61,12.74,7.08v0c1.56,5.47-1.61,11.17-7.08,12.74l-45.4,12.95
					c-4.94,1.41-10.16-1.04-12.25-5.73l0,0C533.12,422.41,536.23,415.77,542.25,414.05z"/>
				<path class="st2" d="M407.22,413.78l24.74-15.5c2.77-1.73,6.42-0.71,7.88,2.21l0.29,0.58c1.3,2.59,0.38,5.75-2.11,7.23
					l-25.03,14.92c-2.9,1.73-6.66,0.48-7.95-2.65l0,0C404.01,418.08,404.93,415.21,407.22,413.78z"/>
				<g>
					<path class="st2" d="M437.55,555.31c-0.77,0-1.54-0.11-2.29-0.32c-2.36-0.67-4.31-2.35-5.32-4.6l-61.57-136.57
						c-1.65-3.65-0.46-7.96,2.82-10.26l87.91-61.59c0.86-0.6,1.82-1.03,2.84-1.28l104.36-25.1c3.9-0.94,7.91,1.03,9.56,4.68
						l61.58,136.57c1.01,2.24,0.98,4.81-0.08,7.03c-1.06,2.22-3.04,3.85-5.42,4.48l-102.12,26.66l-87.6,58.88
						C440.82,554.82,439.19,555.31,437.55,555.31z M386.43,413.26l54.67,121.26l80.57-54.16c0.78-0.52,1.64-0.91,2.55-1.15
						l93.93-24.52l-54.67-121.26l-96.1,23.11L386.43,413.26z"/>
				</g>
			</g>
			<g>
				<line class="st4" x1="509.66" y1="498.5" x2="447.38" y2="360.36"/>
				<path class="st2" d="M509.67,506.84c-3.18,0-6.22-1.83-7.61-4.92l-62.28-138.13c-1.89-4.2-0.02-9.14,4.18-11.04
					c4.2-1.89,9.14-0.02,11.04,4.18l62.28,138.13c1.89,4.2,0.02,9.14-4.18,11.04C511.98,506.6,510.81,506.84,509.67,506.84z"/>
			</g>
			<g>
				<line class="st4" x1="540.99" y1="480.18" x2="480.28" y2="345.53"/>
				<path class="st2" d="M540.99,488.53c-3.18,0-6.22-1.83-7.61-4.92l-60.71-134.65c-1.89-4.2-0.02-9.14,4.18-11.04
					c4.2-1.89,9.14-0.02,11.04,4.18l60.71,134.65c1.89,4.2,0.02,9.14-4.18,11.04C543.31,488.29,542.14,488.53,540.99,488.53z"/>
			</g>
		</g>
		<g>
			<path class="st0" d="M372.38,573.01c0,0-19.42,1.83-36.59-10.07c-14.3-9.91-22.28-26.86-21.51-44.24
				c1.09-24.72,24.59-31.64,59.18-64.96c43.38-41.79,89.75,32.28,19.7,85.32"/>
			
				<ellipse transform="matrix(0.6833 -0.7302 0.7302 0.6833 -238.1529 447.9479)" class="st3" cx="397.24" cy="498.47" rx="16.08" ry="10.13"/>
			
				<ellipse transform="matrix(0.6833 -0.7302 0.7302 0.6833 -250.8719 432.3468)" class="st3" cx="372.9" cy="505.33" rx="8.04" ry="5.06"/>
			<path class="st1" d="M373.46,453.74c-34.59,33.32-58.09,40.24-59.18,64.96c-0.77,17.38,7.21,34.33,21.51,44.24
				c17.16,11.9,36.59,10.07,36.59,10.07l20.78-33.95c0.91-0.69,1.79-1.39,2.66-2.08l0.9-4.41c-9.19,8.39-24.95,7.25-33.8-1.49
				c-8.85-8.74-10.55-23.38-5.17-34.6c5.37-11.22,16.92-18.85,29.19-20.92c10.72-1.81,22.07,0.37,31.36,6.02
				c3.26,1.98,6.5,4.44,10.17,5.18C434.16,450.76,403.11,425.17,373.46,453.74z"/>
			<g>
				<path class="st2" d="M369.48,581.45c-7.15,0-23.49-1.28-38.45-11.66c-16.38-11.36-25.99-31.08-25.09-51.46
					c0.9-20.35,13.97-30.75,32.07-45.14c8.68-6.9,18.51-14.72,29.65-25.46c13.25-12.77,28.78-17.46,42.61-12.88
					c13.59,4.5,23.73,17.55,26.46,34.04c4.39,26.51-10.02,55.23-38.54,76.82c-3.67,2.78-8.91,2.06-11.69-1.62
					c-2.78-3.67-2.06-8.91,1.62-11.69c23.49-17.78,35.51-40.51,32.15-60.79c-1.71-10.36-7.56-18.37-15.24-20.92
					c-7.86-2.61-17.02,0.61-25.78,9.06c-11.71,11.28-22.32,19.72-30.84,26.5c-17.94,14.27-25.25,20.55-25.79,32.82
					c-0.65,14.71,6.22,28.9,17.93,37.01c14.26,9.89,30.88,8.63,31.05,8.62c4.59-0.44,8.66,2.94,9.09,7.52
					c0.43,4.59-2.94,8.66-7.52,9.09C372.95,581.33,371.63,581.45,369.48,581.45z"/>
			</g>
		</g>
		<g>
			<path class="st0" d="M676.69,438.85c0,0,14.33-13.24,16.92-33.97c2.16-17.26-5.13-34.51-18.59-45.54
				c-19.14-15.69-39.97-2.8-87.87,0.71c-60.07,4.41-35.87,88.38,50.39,71.61"/>
			<ellipse class="st3" cx="615.26" cy="408.37" rx="16.08" ry="10.13"/>
			<ellipse class="st3" cx="637.49" cy="391.35" rx="8.04" ry="5.06"/>
			<path class="st1" d="M587.16,360.06c-36.05,2.65-41.74,33.95-21.88,54.94c2.22,1.73,4.55,3.31,6.97,4.69
				c13.98,7.97,30.38,10.58,46.44,11.55c-9.39-4.17-19.05-8.53-26.06-16.04c-7.01-7.51-10.73-19.08-6.21-28.3
				c4.32-8.8,14.52-12.93,24.09-15.03c10.63-2.33,21.93-3.06,32.23,0.43c12.76,4.32,23.05,15.3,26.54,28.31
				c1.81,6.74,1.75,13.92,0.06,20.68c-1.29,5.14-3.75,10.21-3.12,15.65l10.47,1.92c0,0,14.33-13.24,16.92-33.97
				c2.16-17.26-5.13-34.51-18.59-45.54C655.89,343.65,635.05,356.54,587.16,360.06z"/>
			<g>
				<path class="st2" d="M676.69,447.2c-2.25,0-4.49-0.9-6.13-2.68c-3.12-3.38-2.92-8.64,0.44-11.77
					c0.27-0.26,12.18-11.74,14.33-28.9c1.77-14.14-4.21-28.72-15.6-38.06c-9.5-7.78-19.05-6.54-41.65-2.7
					c-10.74,1.82-24.1,4.09-40.32,5.28c-12.14,0.89-20.65,5.56-23.95,13.15c-3.23,7.43-1.16,17.13,5.41,25.31
					c12.86,16.04,37.81,22.25,66.73,16.63c4.53-0.88,8.91,2.08,9.78,6.6c0.88,4.52-2.08,8.9-6.6,9.78
					c-35.12,6.83-66.12-1.61-82.93-22.57c-10.46-13.04-13.41-29.29-7.69-42.42c5.82-13.36,19.68-21.79,38.03-23.14
					c15.43-1.13,27.82-3.24,38.75-5.09c22.8-3.87,39.27-6.67,55.02,6.25c15.78,12.94,24.05,33.26,21.58,53.04
					c-2.94,23.48-18.86,38.43-19.54,39.06C680.75,446.47,678.72,447.2,676.69,447.2z"/>
			</g>
		</g>
		<path class="st6" d="M291.1,608.88c12.2-4.12,15.53-7.45,19.65-19.65c4.12,12.2,7.45,15.53,19.65,19.65
			c-12.2,4.12-15.53,7.45-19.65,19.65C306.64,616.33,303.3,612.99,291.1,608.88z"/>
		<path class="st6" d="M702.64,429.61c12.04-4.55,15.26-8,18.94-20.34c4.55,12.04,8,15.26,20.34,18.94
			c-12.04,4.55-15.26,8-18.94,20.34C718.43,436.51,714.98,433.29,702.64,429.61z"/>
		<path class="st6" d="M723.36,395.39c6.02-2.27,7.63-4,9.47-10.17c2.27,6.02,4,7.63,10.17,9.47c-6.02,2.27-7.63,4-9.47,10.17
			C731.25,398.83,729.53,397.23,723.36,395.39z"/>
	</g>
	<ellipse class="st5" cx="581.21" cy="849.11" rx="120.02" ry="14.42"/>
</g>
</svg>
